<svg width="487" height="480" viewBox="0 0 487 480" fill="none" xmlns="http://www.w3.org/2000/svg">
<path d="M177.089 203.203C196.135 203.203 211.635 187.745 211.635 168.75C211.635 149.75 196.135 134.292 177.089 134.292C158.036 134.292 142.536 149.75 142.536 168.75C142.536 187.745 158.036 203.203 177.089 203.203ZM177.089 143.802C190.88 143.802 202.104 154.99 202.104 168.75C202.104 182.5 190.88 193.693 177.089 193.693C163.292 193.693 152.073 182.505 152.073 168.75C152.073 154.995 163.292 143.802 177.089 143.802Z" fill="#FFBD1F"/>
<path d="M301.891 258.672C285.542 258.672 272.24 271.937 272.24 288.24C272.24 304.542 285.542 317.802 301.891 317.802C318.234 317.802 331.536 304.542 331.536 288.24C331.536 271.937 318.234 258.672 301.891 258.672ZM301.891 308.297C290.797 308.297 281.771 299.302 281.771 288.24C281.771 277.182 290.797 268.182 301.891 268.182C312.979 268.182 322.005 277.182 322.005 288.24C322.005 299.297 312.979 308.297 301.891 308.297Z" fill="#FFBD1F"/>
<path d="M267.854 183.12C276.667 183.12 283.844 175.964 283.844 167.172C283.844 158.38 276.667 151.229 267.854 151.229C259.036 151.229 251.859 158.38 251.859 167.172C251.859 175.964 259.031 183.12 267.854 183.12ZM267.854 160.734C271.411 160.734 274.307 163.625 274.307 167.172C274.307 170.724 271.411 173.615 267.854 173.615C264.292 173.615 261.396 170.724 261.396 167.172C261.396 163.625 264.292 160.734 267.854 160.734Z" fill="#2776EA"/>
<path d="M184.354 252.234C184.354 243.443 177.177 236.292 168.365 236.292C159.547 236.292 152.375 243.443 152.375 252.234C152.375 261.026 159.547 268.182 168.365 268.182C177.177 268.182 184.354 261.026 184.354 252.234ZM161.906 252.234C161.906 248.688 164.802 245.797 168.365 245.797C171.922 245.797 174.818 248.688 174.818 252.234C174.818 255.786 171.922 258.677 168.365 258.677C164.802 258.677 161.906 255.786 161.906 252.234Z" fill="#2776EA"/>
<path d="M177.089 313.661C168.271 313.661 161.099 320.818 161.099 329.609C161.099 338.401 168.271 345.557 177.089 345.557C185.901 345.557 193.078 338.401 193.078 329.609C193.078 320.818 185.901 313.661 177.089 313.661ZM177.089 336.047C173.526 336.047 170.63 333.161 170.63 329.609C170.63 326.057 173.526 323.172 177.089 323.172C180.646 323.172 183.542 326.057 183.542 329.609C183.542 333.161 180.646 336.047 177.089 336.047Z" fill="#2776EA"/>
<path d="M276.755 266.458C278.438 264.438 278.151 261.443 276.125 259.771L261.646 247.813C263.057 244.953 263.87 241.75 263.87 238.359C263.87 230.667 259.792 223.922 253.693 220.109L263.615 190.802C264.458 188.318 263.12 185.62 260.625 184.776C258.13 183.938 255.427 185.271 254.589 187.76L244.698 216.964C243.901 216.875 243.089 216.818 242.271 216.818C238.198 216.818 234.406 217.964 231.151 219.922L212.995 197.708C211.328 195.672 208.328 195.37 206.286 197.026C204.245 198.688 203.943 201.682 205.604 203.714L224.24 226.521C222.177 229.635 220.922 233.313 220.719 237.266L190.891 243.828C188.318 244.391 186.693 246.932 187.26 249.495C187.75 251.714 189.724 253.224 191.911 253.224C192.25 253.224 192.599 253.188 192.943 253.109L222.333 246.646C223.646 249.776 225.688 252.521 228.229 254.698L188.12 307.432C186.526 309.526 186.938 312.51 189.036 314.094C189.896 314.745 190.911 315.062 191.911 315.062C193.354 315.062 194.776 314.417 195.714 313.182L236.792 259.172C238.547 259.63 240.375 259.901 242.271 259.901C247.333 259.901 251.984 258.141 255.672 255.224L270.047 267.089C270.938 267.828 272.01 268.182 273.083 268.182C274.453 268.182 275.813 267.594 276.755 266.458ZM242.271 250.391C235.615 250.391 230.203 244.995 230.203 238.359C230.203 231.724 235.615 226.323 242.271 226.323C248.922 226.323 254.333 231.724 254.333 238.359C254.333 244.995 248.922 250.391 242.271 250.391Z" fill="#E4E9EA"/>
</svg>
